<svg id="Calque_1" data-name="Calque 1" xmlns="http://www.w3.org/2000/svg" viewBox="0 0 624 624"><defs><style>.cls-1{fill:#fff;opacity:0.99;}</style></defs><title>pico_linkedin</title><path class="cls-1" d="M570,0H170A112,112,0,0,0,58,112V512A112,112,0,0,0,170,624H570A112,112,0,0,0,682,512V112A112,112,0,0,0,570,0ZM259.26,362.45h-.05V463c0,10.11-4.45,14.6-14.53,14.6h-42c-9.69,0-14.31-4.66-14.31-14.46V263.45c0-11.28,4.32-15.6,15.56-15.6h40.59c10.11,0,14.7,4.56,14.7,14.53Zm0-164.2c0,8.5-4.9,13.36-13.43,13.47-7.36.06-14.77,0-22.12,0v0c-7.23,0-14.43.09-21.66,0-8.51-.08-13.45-4.9-13.54-13.44q-.17-19.32,0-38.7c.09-8.62,4.88-13.27,13.53-13.31q21.89,0,43.79,0c8.65,0,13.44,4.76,13.44,13.31Q259.34,178.95,259.26,198.25ZM535.85,477.76c-13.82-.55-27.67-.14-41.5-.14-8.93,0-13.66-4.71-13.66-13.59-.06-32.28.2-64.58-.26-96.84-.18-13-.81-26.23-3.26-39-4-20.36-18.43-31.94-39.2-32.1-21.69-.2-39,8.61-50.19,27.77-5.38,9.24-7.12,19.69-7.58,30.12-1,21.19-1.43,42.36-1.8,63.59-.25,15.56,0,31.07-.06,46.59,0,8.65-4.73,13.4-13.34,13.4q-21.67.06-43.34,0c-9.24,0-13.88-4.55-13.88-13.82v-101l0,.05V263.21c0-11.07,4.26-15.32,15.26-15.32,12.32,0,24.65-.07,36.9,0,8.55,0,13.42,4.84,13.55,13.37.12,4-.23,8,.12,12,.22,2.58,1.31,5.08,2,7.61,2.26-1.35,4.73-2.48,6.71-4.16,4.24-3.56,8-7.68,12.25-11.18,19.77-16.33,42.71-23.76,68.14-23.5,19.28.2,37.38,4.63,53.9,14.85,17.75,11,27.87,27.38,31.14,47.42,2.49,15.54,3.34,31.47,3.56,47.24.5,36.89,0,73.79.28,110.68C551.64,471.51,547,478.22,535.85,477.76Z" transform="translate(-58)"/></svg>