<?xml version="1.0" encoding="utf-8"?>
<!-- Generator: Adobe Illustrator 23.1.0, SVG Export Plug-In . SVG Version: 6.00 Build 0)  -->
<svg version="1.1" id="Calque_1" xmlns:serif="http://www.serif.com/"
	 xmlns="http://www.w3.org/2000/svg" xmlns:xlink="http://www.w3.org/1999/xlink" x="0px" y="0px" viewBox="0 0 740 624"
	 style="enable-background:new 0 0 740 624;" xml:space="preserve">
<style type="text/css">
	.st0{opacity:0.99;fill:#FFFFFF;}
</style>
<path class="st0" d="M570,0H170C108.1,0,58,50.1,58,112v400c0,61.9,50.1,112,112,112h400c61.9,0,112-50.1,112-112V112
	C682,50.1,631.9,0,570,0z M259.3,362.4L259.3,362.4L259.2,463c0,10.1-4.5,14.6-14.5,14.6h-42c-9.7,0-14.3-4.7-14.3-14.5
	c0-38,0-75.9,0-113.9v-85.7c0-11.3,4.3-15.6,15.6-15.6c13.5,0,27.1,0,40.6,0c10.1,0,14.7,4.6,14.7,14.5V362.4z M259.3,198.3
	c0,8.5-4.9,13.4-13.4,13.5c-7.4,0.1-14.8,0-22.1,0l0,0c-7.2,0-14.4,0.1-21.7,0c-8.5-0.1-13.5-4.9-13.5-13.4
	c-0.1-12.9-0.1-25.8,0-38.7c0.1-8.6,4.9-13.3,13.5-13.3c14.6,0,29.2,0,43.8,0c8.6,0,13.4,4.8,13.4,13.3
	C259.3,172.5,259.3,185.4,259.3,198.3z M535.8,477.8c-13.8-0.6-27.7-0.1-41.5-0.1c-8.9,0-13.7-4.7-13.7-13.6
	c-0.1-32.3,0.2-64.6-0.3-96.8c-0.2-13-0.8-26.2-3.3-39c-4-20.4-18.4-31.9-39.2-32.1c-21.7-0.2-39,8.6-50.2,27.8
	c-5.4,9.2-7.1,19.7-7.6,30.1c-1,21.2-1.4,42.4-1.8,63.6c-0.3,15.6,0,31.1-0.1,46.6c0,8.6-4.7,13.4-13.3,13.4c-14.4,0-28.9,0-43.3,0
	c-9.2,0-13.9-4.5-13.9-13.8c0-33.7,0-67.3,0-101l0,0v-99.6c0-11.1,4.3-15.3,15.3-15.3c12.3,0,24.6-0.1,36.9,0
	c8.5,0,13.4,4.8,13.6,13.4c0.1,4-0.2,8,0.1,12c0.2,2.6,1.3,5.1,2,7.6c2.3-1.3,4.7-2.5,6.7-4.2c4.2-3.6,8-7.7,12.2-11.2
	c19.8-16.3,42.7-23.8,68.1-23.5c19.3,0.2,37.4,4.6,53.9,14.8c17.8,11,27.9,27.4,31.1,47.4c2.5,15.5,3.3,31.5,3.6,47.2
	c0.5,36.9,0,73.8,0.3,110.7C551.6,471.5,547,478.2,535.8,477.8z"/>
</svg>
