<svg xmlns="http://www.w3.org/2000/svg" viewBox="0 0 624 624"><defs><style>.cls-1{fill:#fff;}</style></defs><title>picto_behance</title><g id="Calque_1" data-name="Calque 1"><path class="cls-1" d="M486.87,297.23c-20.84-.54-38.48,17-39.88,40h78.82C525.44,314.34,509.08,297.8,486.87,297.23Z" transform="translate(-58)"/><path class="cls-1" d="M570,0H170A112,112,0,0,0,58,112V512A112,112,0,0,0,170,624H570A112,112,0,0,0,682,512V112A112,112,0,0,0,570,0ZM433.62,207.33H540.78v26.2H433.62ZM333.25,442.41a114.1,114.1,0,0,1-39.65,8.75c-42.4,1.11-84.85.42-127.27.4-1.57,0-3.13-.23-5.16-.38V192.77h7.76c39.93.4,79.86.67,119.73,1.31,17.79.29,34.62,4.24,50.18,13.56,32.4,19.39,37.3,81.91-4.1,101.76-1.37.65-2.6,1.54-4.56,2.73,16.92,6.12,30.14,15.65,38.21,31.17C387.69,380.63,372,426.39,333.25,442.41ZM578.83,371h-133c-1.85,19,10.24,39.43,26.94,45.51,20.07,7.3,40.33,1.18,51.74-16.34,3-4.52,6.13-5.7,11.06-5.6,12.52.26,25,.08,38.49.08a76.83,76.83,0,0,1-16.67,32.85c-17.06,20.3-39.74,29-65.42,28.47-15.33-.32-18.61,0-45.8-6.51-16.5-4-29.1-14.69-38.27-29.12-18-28.36-25-83.18,2.18-121.31,14.53-20.39,33.77-32.81,58.4-36.86a114.05,114.05,0,0,1,48.15,2.12c37.38,9.8,54.14,36.92,59.86,72.66,1.78,11.12,1.64,22.54,2.38,34h0Z" transform="translate(-58)"/><path class="cls-1" d="M284.4,294.77a24.19,24.19,0,0,0,19.34-10.19c14.76-20.7,4.22-46.1-21-48.12-21.05-1.68-42.32-.9-63.49-1.16-.37,0-.75.44-1.35.81V295C240.33,295,262.37,295.41,284.4,294.77Z" transform="translate(-58)"/><path class="cls-1" d="M289.47,339.11c-23.35-1.45-46.88-.93-70.33-1.23-.36,0-.76.48-1.22.81v64.93c24.73,0,48.68,1.16,72.47-.37,18.75-1.2,28.63-15.07,28.18-34.66C318.2,352.39,307.44,340.22,289.47,339.11Z" transform="translate(-58)"/></g></svg>