<svg id="Calque_1" data-name="Calque 1" xmlns="http://www.w3.org/2000/svg" viewBox="0 0 1000 1000"><defs><style>.cls-1{fill:#661bdd;}</style></defs><title>Plan de travail 1</title><path class="cls-1" d="M699.92,259.17a8.38,8.38,0,0,0-8.38-8.36H355.84l-.11,0c-.09,0-.11.05-.2.05-14.55-.79-29.32,6-39.65,16.58a56,56,0,0,0-16.74,40.05V692.1a5.37,5.37,0,0,0,.26,1.23,56.6,56.6,0,0,0,56.42,55.12H691c.2,0,.33.11.51.11a7.65,7.65,0,0,0,4.15-1.32c.2-.11.33-.2.54-.34a8.87,8.87,0,0,0,2.53-2.78c.07-.13.22-.2.27-.31s0-.11,0-.18a7.93,7.93,0,0,0,.87-3.56,2.51,2.51,0,0,0-.11-.47,5.35,5.35,0,0,0-.18-.92,8.37,8.37,0,0,0-1.23-3.1,3.63,3.63,0,0,0-.22-.6,66.71,66.71,0,0,1-13.54-43,3,3,0,0,0,0-.6,66.76,66.76,0,0,1,13.54-42.74c.13-.18.11-.38.2-.54a7.66,7.66,0,0,0,1.25-3.14,6,6,0,0,0,.16-.85c0-.18.11-.34.11-.51V259.17ZM683.16,635.24h-319V267.53h319ZM315.88,307.45a40.19,40.19,0,0,1,31.49-39v367.6a55.85,55.85,0,0,0-31.49,15.6Zm39.94,424.23A39.79,39.79,0,0,1,333.36,659a.92.92,0,0,1,.22-.18c.72-.47,1.53-.81,2.27-1.26a42.63,42.63,0,0,1,20-5.53H676.57a96,96,0,0,0,0,79.65Z"/></svg>