<svg id="Calque_1" data-name="Calque 1" xmlns="http://www.w3.org/2000/svg" viewBox="0 0 1000 1000"><defs><style>.cls-1{fill:#661bdd;}</style></defs><title>Plan de travail 1</title><path class="cls-1" d="M510,9.65C239.4,9.65,20,229,20,499.65q0,20.55,1.67,40.67c22.74-37.24,61-64,107.41-71.43,74.92-12,148.24,34.1,170.81,107.53,6,19.44,5.88,19.59-14.94,19.59s-41.63,0-62.45,0c-22.47,0-44.93-.2-67.37.1-17.55.23-27.82,10-27.67,25.47.15,14.77,9.9,24.61,26.73,24.81,44.38.48,88.75.15,133.13.31,17.11,0,17.9,1.28,13.08,17.94-21.23,73.56-93.05,119.15-171.48,108.9A138.29,138.29,0,0,1,98.66,766C186,900.6,337.6,989.65,510,989.65c270.62,0,490-219.38,490-490S780.62,9.65,510,9.65ZM521.47,152c30.87.2,54.87,24.36,54.95,55.31.05,31.12-25.62,56.84-56.16,56.31a55.81,55.81,0,0,1-54.86-55.88C465.4,175.71,489.43,151.83,521.47,152ZM393.7,379.47c-3.38.8-7.22.88-10.12,2.5-18.91,10.67-37.61,21.68-60.23,34.83,53.92,14.59,102.46,27.64,151,40.89,28.27,7.7,36.88,27.52,21.1,52.08-38.47,59.82-77.92,119-116.84,178.59-5.86,9-13.41,13.83-23.38,8.3-11.13-6.18-9.44-15.85-4.49-25.67q36.62-72.47,73.1-145c8.68-17.26,8.63-17.19-9.69-22.11-60.74-16.26-121.34-32.92-182.2-48.67C211.75,449.94,200.72,437,197.21,418c-3.68-20.15,3.94-37.06,21.89-47.51q103.56-60.31,207.62-119.72c22-12.5,45.91-6.77,59.92,12.47,14.54,19.91,10,42.58-6.28,62.7-9.57,11.84-12.4,29.23-17.52,44.32-.2.66,6.94,5.35,10.8,5.56,64.52,3.61,129,6.71,193.59,10.24,6.28.36,14.18,1.14,18.17,5,3.71,3.64,6.06,13.08,3.86,17.24-2.65,5-10.55,9.57-16.53,10-34.91,2.76-70,4.3-104.93,6.14-45.94,2.4-91.89,4.87-137.85,7-30,1.36-41.68-12.53-36.5-42.41C394,386,393.65,382.67,393.7,379.47ZM664.61,774.63c-62.72-.46-119.39-37-141.38-94.61-23.35-61.16-12.42-117,31.86-166,10-11.14,15.07-9.7,22.08,3,20.4,36.87,41.81,73.17,63.06,109.6,10.25,17.59,23.8,22.82,37.58,15.17,14.39-8,16.77-22.87,6.21-41.27-21.48-37.54-42.86-75.15-64.92-112.33-5.6-9.44-3.71-12.6,6.21-15.6,89.86-27.21,189.34,43.11,193.48,137.09C822.91,703.37,755.74,775.28,664.61,774.63Z"/></svg>