<svg id="Calque_1" data-name="Calque 1" xmlns="http://www.w3.org/2000/svg" viewBox="0 0 624 624"><defs><style>.cls-1{fill:#fff;}</style></defs><title>picto_mail</title><path class="cls-1" d="M571,0H169A111,111,0,0,0,58,111V513A111,111,0,0,0,169,624H571A111,111,0,0,0,682,513V111A111,111,0,0,0,571,0ZM186.91,168.14H553.09c13.06,0,23.42,9.72,25.38,22.25L370,327.75,161.53,190.39C163.49,177.86,173.85,168.14,186.91,168.14Zm-26.16,53,141.08,93L160.75,403.34ZM553.09,455.86H186.91c-13,0-23.3-9.65-25.33-22.08L325.8,329.92l37,24.4a13.1,13.1,0,0,0,14.38,0l37-24.37L578.42,433.78C576.39,446.21,566.1,455.86,553.09,455.86Zm26.16-52.52L438.17,314.15l141.08-93Z" transform="translate(-58)"/></svg>