<svg id="Calque_1" data-name="Calque 1" xmlns="http://www.w3.org/2000/svg" viewBox="0 0 1000 1000"><defs><style>.cls-1{fill:#661bdd;}</style></defs><title>Plan de travail 1</title><path class="cls-1" d="M642.3,443.8H541.47V373.17A38.21,38.21,0,0,0,503.34,335H356.77a38.21,38.21,0,0,0-38.14,38.13v91.65a37.36,37.36,0,0,0,6.53,21.27c14,27.19,80.43,68,81.09,68.57a6.17,6.17,0,0,0,3.13.92,6.08,6.08,0,0,0,5.57-8.29,265.34,265.34,0,0,1-12.09-44.41h54.75v70.68a38.12,38.12,0,0,0,38.12,38.09H596.21A265.38,265.38,0,0,1,584.12,656a6,6,0,0,0,8.7,7.31c.66-.42,67.13-41.38,81.08-68.58a37.24,37.24,0,0,0,6.52-21.26v-91.6A38.17,38.17,0,0,0,642.3,443.8M436,490.81H395.67a6,6,0,0,0-6,7,328.27,328.27,0,0,0,8.4,37.09c-20.91-14.13-53.83-38.43-62-54.06a6.87,6.87,0,0,0-.67-1.22,25.67,25.67,0,0,1-4.65-14.8V373.17a26.12,26.12,0,0,1,26-26.05H503.34a26.11,26.11,0,0,1,26,26.05V443.8H495.73A38.1,38.1,0,0,0,466.06,458a53.36,53.36,0,0,1-24.78-6,75.67,75.67,0,0,0,18.85-46h7.61a6,6,0,1,0,0-12.07h-31.4V374.79a6,6,0,0,0-12.09,0V393.7H392.76a6,6,0,0,0,0,12.09H448a63.33,63.33,0,0,1-15.66,37.83l-1,.9a62.71,62.71,0,0,1-15.1-23.38,6.05,6.05,0,1,0-11.3,4.35,75.29,75.29,0,0,0,16.43,26.22A59.25,59.25,0,0,1,393,458.06a6,6,0,1,0,0,12.07,69.48,69.48,0,0,0,38.48-10.21,62.45,62.45,0,0,0,28.21,9.55,36.94,36.94,0,0,0-2,12.09v8.88Zm232.31,82.75a25.75,25.75,0,0,1-4.65,14.82,3.93,3.93,0,0,0-.61,1.14c-8.22,15.66-41.2,40-62.11,54.38a324.62,324.62,0,0,0,8.4-37.1,6,6,0,0,0-6-7H495.73a26,26,0,0,1-26-26V481.91a26.1,26.1,0,0,1,26-26H642.3a26.1,26.1,0,0,1,26,26Zm-93.47-92.92h0a5.16,5.16,0,0,0-.9-1.37.69.69,0,0,0-.42-.61c-.22-.15-.44-.31-.67-.44a6.17,6.17,0,0,0-1.27-.83,5.13,5.13,0,0,0-1,0,9,9,0,0,0-1.27,0,7.11,7.11,0,0,0-1.58.3h-.66a6.22,6.22,0,0,0-1.57,1l-.43.3-.48.72a7.76,7.76,0,0,0-.84,1.27l-36.25,90.64a6,6,0,0,0,3.38,7.83,5.4,5.4,0,0,0,2.24.44,6.06,6.06,0,0,0,5.62-3.81l10.51-26.41H589.5l10.56,26.41a6.06,6.06,0,0,0,5.62,3.81,5.82,5.82,0,0,0,2.25-.44,6,6,0,0,0,3.37-7.83Zm-21,56.62,15.29-38.12,15.22,38.12Z"/></svg>