<svg id="Calque_1" data-name="Calque 1" xmlns="http://www.w3.org/2000/svg" viewBox="0 0 1000 1000"><defs><style>.cls-1{fill:#661bdd;}</style></defs><title>Plan de travail 1</title><path class="cls-1" d="M616.34,444.54c.14-12.79-10.36-23.83-22.83-24S570,431.13,570,443.87a23,23,0,0,0,23.4,23.23C606.22,467,616.22,457.25,616.34,444.54Z"/><path class="cls-1" d="M500,98.27q-6.75,0-13.44.23c32.9,42.66,75.59,120.28,44.35,209.83,2.05.06,4.09,0,6.13.12,19.36.57,37.49-3.54,55.37-10.5,58.2-22.67,112.18-3,143.85,52,20.3,35.21,31.48,73.49,37.26,113.36,4,27.43,9.83,54.94,9.22,82.69-1.45,65.18-4.52,76.68-20.68,112.28-10.71,23.52-26.61,41.69-54.86,43.47-18.21,1.1-34-6-48.43-16.16-26.33-18.6-45.19-43.9-61.91-70.86-10.69-17.25-25.81-25.18-45.71-25.18-34.77,0-69.55-.16-104.31-.06-19.42.06-34.48,7.91-44.91,25-17.57,28.74-38.07,55-66.54,74.11s-61.55,18.51-81.15-4.21c-10.22-11.83-18.11-26.73-23.47-41.53-13.05-36.15-14.57-74.23-13-112.18,2.16-53.58,10.77-106.07,32-155.77,11.83-27.69,27.88-52.36,53.71-69.26,30.29-19.82,62.9-22.11,96.07-9.87,23.49,8.7,46.93,13.85,72.06,12.73,5-.2,10-.16,15-.26,42.44-95.76-24.36-178.52-49.52-205C247.88,133.38,103.28,297.29,103.28,495c0,219.1,177.61,396.72,396.72,396.72S896.72,714.09,896.72,495,719.11,98.27,500,98.27Z"/><path class="cls-1" d="M335.64,493.88c1.57,15.81,19.11,25.07,33.19,17.65,9.44-5,13.12-13.18,13.47-23.29.65-19.11,1.16-19.62,19.7-20.54a47.53,47.53,0,0,0,10.24-1.7c10.23-3,16.08-11.08,16.12-21.79,0-14.67-9.85-23.58-26.75-24.11-18.33-.57-19-1.27-19.31-19.56-.25-15.78-9.57-26.28-23.51-26.45-14.69-.16-22.7,8.79-23.21,25.94-.51,17-3.13,19.39-19.75,20.19-4.94.25-10.21,1.06-14.59,3.19-16.39,7.89-18.17,29.39-3,39.32,4.92,3.23,11.79,4.35,17.88,4.78,16.21,1.11,19,3.56,19.42,19.74C335.62,489.44,335.41,491.67,335.64,493.88Z"/><path class="cls-1" d="M710.45,444.21c.29-12.28-11.07-24-23.23-23.95S664.12,431.2,664,443.19c-.21,13.33,9.52,23.63,22.72,24.08C699.4,467.72,710.15,457.31,710.45,444.21Z"/><path class="cls-1" d="M663.47,397.17c.06-12.92-10.22-23-23.5-23.1a23,23,0,1,0-.13,46C653.19,420.1,663.41,410.19,663.47,397.17Z"/><path class="cls-1" d="M640.52,514.54c11.87-.08,22.87-11.14,23-23.12a23.45,23.45,0,0,0-23.16-23.62c-12.83-.1-23.74,10.65-23.58,23.26C616.91,503.46,628.21,514.6,640.52,514.54Z"/></svg>