<svg id="Calque_1" data-name="Calque 1" xmlns="http://www.w3.org/2000/svg" viewBox="0 0 1000 1000"><defs><style>.cls-1{fill:#661bdd;}</style></defs><title>Plan de travail 1</title><path class="cls-1" d="M697.71,696.3c8.88-8,18.32-15.38,24.73-25.79,3.82-6.18,9.8-12.49,5-19.87-4.88-7.6-12.93-4.5-20-2.78-2,.49-4,1.12-6,1.68-6.27.92-4.65-3.91-5-7.06-.83-8.16,1.35-16.48-1.33-24.57-1.85-12.5-.43-23,12-30.8,6.11-3.84,9.89-11.87,13.8-18.55,2.68-4.63,6.93-9.87,2-15.69-4.83-5.66-10.93-4.81-17.24-3.13-3.45.93-7,1.44-10.57,2.14-3.82-11.44-.86-23.24-1.8-34.82.68-11.71-1.46-23.5,1.33-35.1,26.75-25,53.57-49.91,80.21-75a71.55,71.55,0,0,0,20.73-34.55c3.87-15.08-4.14-23.15-19.36-20.64-19.17,3.17-35.59,12.57-50.89,23.52-22.87,16.36-44.85,34-67,51.25-4.27,3.33-8.27,6.71-14.05,5.42-17.85-3.95-35.63-8.27-53.53-12-9-1.86-8-5.57-3.95-11.82,3.4-5.17,6.84-11.36,1.87-17.41-5.38-6.56-12.35-4.11-18.8-1.75-4.4,1.6-9.55,2.84-12.66,6-20,20-41.77,8.68-63.05,4.18-9.29-1.95-6-7.91-2.7-13,3.89-5.91,7.62-11.74,2.22-18.57-5.75-7.26-12.93-2.7-18.86-1-7.42,2.14-16.46,4.77-20.82,10.34-10.5,13.33-23.11,9.85-35.49,7-13-3-26.06-1.94-39.08-2.7A20,20,0,0,0,363.62,387c-8.18,7.67-9.31,12.05,3.42,16.43,54.94,19,109.12,39.95,159.66,69.11,11.75,6.75,22.82,14.7,33.95,22.44,5.79,4,8.6,7.26.6,14-29.72,24.91-57.59,52-84.5,79.9-7,7.32-13.2,11.15-24.53,8.14-18.08-4.79-37-6.48-55.49-9.74-8.09-1.42-14,2.49-20.23,6.63-7.76,5.15-7.46,8.82.83,13.09,14.43,7.44,28.58,15.42,42.83,23.18,6.7,3.64,9.42,8,.34,11.57C358,666.2,294,680,230.53,648.15c-44.87-22.53-73.51-59.58-77.59-112a355.35,355.35,0,0,1,0-69.79c3.73-63.58,27-120.3,63.89-171.13C272.5,218.49,348.33,170.8,441.58,156c111.19-17.65,211.12,11.33,294.58,88,64.79,59.53,102.64,133.7,110,222.34a326.33,326.33,0,0,1,0,66.8c-2.81,54.07-20.36,103.72-48.57,149.21-38.07,61.44-90.49,107.48-156.7,137.24-37.1,16.64-76,25.39-116.66,28.94-21.11,1.88-41.7.38-62.52-1.13-5-3.14-11.06.56-16-2.67-60.66-8.1-114.39-32.6-162.12-70.26-6.4-5-19.58-8.43-17-17.64,2-7.26,15-4.3,22.86-6Q375.1,732,439.2,672.52c8.81-8.14,13.47-10.28,17.08,4.6,4,16.55,11.14,32.35,17.12,49.1,16.54-5.82,17.93-20.41,19.17-34.3,1.06-12,1.57-24.24.2-36.13-1.93-16.86,5.17-27,18.84-35.75a915,915,0,0,0,89-64.23c8-6.62,10.74-1.16,13.91,4.86,13.81,26.13,22.35,54.25,29.09,82.76,8.1,34.46,14.34,69.35,21.29,104.08.92,4.59,1,9.35,1.8,14,.95,5.5.23,13.66,5.66,15,5.72,1.42,11.29-4.49,15.43-9.06,5.1-5.62,6.45-13,7.17-20.37,4-16.75-1-34,2.74-50.76"/></svg>