<svg id="Calque_1" data-name="Calque 1" xmlns="http://www.w3.org/2000/svg" viewBox="0 0 1000 1000"><defs><style>.cls-1{fill:#661bdd;}</style></defs><title>Plan de travail 1</title><path class="cls-1" d="M454.41,321.56A34,34,0,0,0,435,327.29a29.29,29.29,0,0,0-12.14,24v29.67H310.1a6,6,0,0,0-.85,0c-4.64.5-8.2,4.77-8.18,9.9V618.38c0,32.72,24.28,59.36,54.11,59.36H643.86c29.81,0,54.11-26.64,54.11-59.36V390.82a7.21,7.21,0,0,0,0-.93A11,11,0,0,0,693,382c-.28-.12-.55-.22-.85-.32a11,11,0,0,0-1.69-.61,6,6,0,0,0-.85,0c-.23-.06-.45-.12-.69-.16H576.18V351.25c0-10.75-5.64-19.55-12.12-24a34,34,0,0,0-19.43-5.73Zm0,19.79h90.22a19.93,19.93,0,0,1,9.86,2.79c2.58,1.76,3.65,3,3.65,7.11v29.67H440.88V351.25c0-4.1,1.09-5.35,3.67-7.11a19.93,19.93,0,0,1,9.86-2.79m-135.3,59.36H679.93V469.2a3.66,3.66,0,0,0-.69.61,24.66,24.66,0,0,1-6.92,4.48c-6.75,3.09-17.07,5.56-28.46,5.56H531.08V470c0-16.28-12.22-29.69-27.05-29.69h-9C480.18,440.28,468,453.69,468,470v9.88H355.18c-11.39,0-21.69-2.47-28.44-5.56a24.44,24.44,0,0,1-6.93-4.48,3.88,3.88,0,0,0-.7-.61ZM495,460.07h9c5.17,0,9,4.24,9,9.9v39.57c0,5.65-3.86,9.91-9,9.91h-9c-5.16,0-9-4.26-9-9.91V470c0-5.66,3.85-9.9,9-9.9m-175.9,32.16.7.3c9.56,4.36,21.8,7.13,35.37,7.13H468v9.88c0,16.27,12.22,29.69,27.05,29.69h9c14.83,0,27.05-13.42,27.05-29.69v-9.88H643.86c13.57,0,25.81-2.77,35.38-7.13l.69-.3V618.38c0,22.09-15.95,39.57-36.07,39.57H355.18c-20.12,0-36.07-17.48-36.07-39.57Z"/></svg>