<svg id="OBJECTS" xmlns="http://www.w3.org/2000/svg" viewBox="0 0 500 487.5"><defs><style>.cls-1{fill:#fff;}.cls-2{fill:#dc418f;}.cls-3{fill:#fefefe;}.cls-4{fill:#e571ab;}.cls-5{fill:#2a0019;}.cls-6{fill:#b8608c;}.cls-7{fill:#d7629d;}.cls-8{fill:#2b0019;}</style></defs><title>Plan de travail 1</title><path class="cls-1" d="M230.25,360.18,20.09,150C-2,128,23.26,91.81,51.57,104.93l186.69,86.45a27.93,27.93,0,0,0,23.48,0l186.69-86.45C476.74,91.81,502,128,479.91,150L269.75,360.18a27.93,27.93,0,0,1-39.5,0Z"/><path class="cls-2" d="M.52,0h499a4.42,4.42,0,0,1,.2,2.25V484.7a6.66,6.66,0,0,1-.13,2.27,4.81,4.81,0,0,1-2.26.19H2.78A6.43,6.43,0,0,1,.51,487a4.77,4.77,0,0,1-.19-2.25V2.23A4.34,4.34,0,0,1,.52,0Z"/><path class="cls-3" d="M.55,486.91c.9,0,1.8.06,2.7.06H496.84c.9,0,1.8,0,2.7-.06.17-.16.32-.15.44.07-.09.13.21.43-.21.42H2c-.61,0-1.41.48-1.87-.39C.22,486.76.37,486.74.55,486.91Z"/><path class="cls-4" d="M.55,486.91.11,487V1.91C.13,1.28-.35.48.52,0V483.79C.52,484.83.54,485.87.55,486.91Z"/><path class="cls-4" d="M500,487l-.44-.07V0c.13.09.44-.21.42.21s0,1.11,0,1.66Z"/><path class="cls-5" d="M479.19,466.15H21.39a4.16,4.16,0,0,1-.23-2.44v-440a7.38,7.38,0,0,1,.14-2.48,4.77,4.77,0,0,1,2.25-.18h453.2c2.88,0,2.61-.32,2.61,2.51V463.9A5.52,5.52,0,0,1,479.19,466.15Z"/><path class="cls-6" d="M479.19,466.15c0-.9.08-1.8.08-2.7V22.73c.12-1.22-.47-1.6-1.6-1.49-.55.05-1.11,0-1.66,0H21.38c-.15-.09-.2-.18-.16-.28s.09-.15.14-.15H475.57c4.44,0,4-.25,4,4.07v437.8C479.59,463.85,479.89,465.07,479.19,466.15Z"/><path class="cls-7" d="M21.36,20.86V466.14c-.71-1-.44-2.14-.44-3.23V24.32C21,23.16,20.66,22,21.36,20.86Z"/><path class="cls-2" d="M354.11,217.88v97.59a59.29,59.29,0,0,0,.85,11.6c.4,2-.38,3.19-2.19,4.12-12.64,6.49-26.14,9.87-40.19,11.4-11,1.19-22.07,1.38-32.94-1-29.25-6.52-48.86-23.63-56.31-53.06-5.5-21.7-5.92-43.59,1.75-65,7.34-20.45,20.16-36.54,39.86-46.54,10.24-5.19,21.24-7.62,32.63-8.34a109.91,109.91,0,0,1,16.23,0c1.84.15,2.17-.44,2.16-2.12v-51.4c0-3.44.25-3.71,3.62-3.71h31c3.4,0,3.54.14,3.54,3.5Z"/><path class="cls-2" d="M182.91,225.6V336.09c0,3.67,0,3.76-3.68,3.77H149.45c-3.4,0-3.89-.52-3.89-3.84V115.47c0-3.69.39-4.08,4-4.08h29.78c3.37,0,3.53.17,3.53,3.51Q182.92,170.25,182.91,225.6Z"/><path class="cls-8" d="M316.21,255v49.94c0,3.05,0,3.29-3,3.87-13.57,2.56-26.37,1.14-37.72-7.58-8.78-6.75-13.45-15.89-15.5-26.49-2.76-14.28-3.08-28.6,1.39-42.58,5.3-16.57,16.17-27.58,33.57-31.22a38.73,38.73,0,0,1,19.16.44c1.73.51,2.19,1.32,2.19,3C316.18,221.23,316.21,238.09,316.21,255Z"/></svg>