<svg id="Calque_1" data-name="Calque 1" xmlns="http://www.w3.org/2000/svg" xmlns:xlink="http://www.w3.org/1999/xlink" viewBox="0 0 2500 2438"><defs><style>.cls-1{fill:url(#Dégradé_sans_nom);}.cls-2{fill:#ff7f18;}</style><radialGradient id="Dégradé_sans_nom" cx="1005.79" cy="950.61" r="0.76" gradientTransform="matrix(2291.67, 0, 0, -2218.75, -2304079.11, 2109769.34)" gradientUnits="userSpaceOnUse"><stop offset="0" stop-color="#423325" stop-opacity="0.98"/><stop offset="1" stop-color="#1c0a00"/></radialGradient></defs><title>Plan de travail 1</title><path class="cls-1" d="M104.17,104.41H2395.83V2333.58H104.17Z"/><path class="cls-2" d="M104.17,104.41H2395.83V2333.58H104.17ZM0,2437.75H2500V.25H0ZM1637.5,869c0-8.33,3.12-12.5,12.5-12.5h163.54c8.33,0,12.5,3.12,12.5,12.5v821.88c0,8.32-2.08,12.5-12.5,12.5H1652.08c-10.41,0-13.54-5.21-13.54-13.54V869ZM1626,632.54c0-66.67,46.87-106.25,106.25-106.25,63.55,0,106.25,42.71,106.25,106.25,0,68.75-44.79,106.25-108.33,106.25C1669.79,738.79,1626,701.29,1626,632.54Zm-468.75,579.17c-29.16-115.63-97.91-367.71-124-489.59h-2.08c-21.88,121.88-77.08,328.13-120.83,489.59ZM867.71,1380.46,785.42,1693c-2.09,8.33-5.21,10.41-15.63,10.41H616.67c-10.42,0-12.5-3.12-10.42-15.62L902.08,652.33c5.21-18.75,8.34-35.42,10.42-86.46,0-7.29,3.12-10.41,8.33-10.41h218.75c7.29,0,10.42,2.08,12.5,10.41l331.25,1124c2.08,8.33,0,13.54-8.33,13.54H1302.08c-8.33,0-13.54-2.08-15.62-9.37L1201,1380.46Z"/></svg>