<svg id="Calque_1" data-name="Calque 1" xmlns="http://www.w3.org/2000/svg" viewBox="0 0 120 120"><defs><style>.cls-1,.cls-3{fill:#24d4fe;}.cls-2{fill:#022731;}.cls-3{fill-rule:evenodd;}</style></defs><title>Plan de travail 1</title><rect class="cls-1" x="0.22" width="119.78" height="120"/><rect class="cls-2" x="5.8" y="5.77" width="108.62" height="108.45"/><path class="cls-3" d="M31.87,83.51h8.67V65.69c12.33.81,22.53-1.25,23.1-16.32-.37-6.5-5-11.87-13.77-13-4.66-.62-13.43-1-18.07.55Zm8.8-40.76V59.09s14.89,1.73,14.26-8.42C54.93,50.67,55.7,40.74,40.67,42.75Z"/><path class="cls-3" d="M66.19,75.22l-1.87,6.44c12.13,4.17,21.21,2.39,23.83-5.1,3-8.72-5.7-12.32-9.32-13.7-12.14-4.6-2.39-10.88,6.72-6.07l1.7-6.44c-6.54-2.52-15.74-3.13-20.2,3.27-4.28,9-.2,11.72,6.72,15.28,12.12,6.23,4.65,12.24-7.58,6.32"/></svg>