<svg id="Calque_1" data-name="Calque 1" xmlns="http://www.w3.org/2000/svg" viewBox="0 0 595.28 595.28"><title>Plan de travail 1</title><path d="M477.23,328.6c4.94,34.22-22.32,76-67,80.15-32.36,3-50-1.13-58.63-60.87-4.94-34.22,5.29-68.54,42.24-75.38C432,265.43,472.29,294.38,477.23,328.6Z"/><path d="M96.07,187.47c7.72,29.85,8.77,48.72-11.58,56s-52.86-6.65-62.11-29.56c-8.61-21.31,12.63-44.9,33-52.21S90.66,166.54,96.07,187.47Z"/><path d="M348.68,580.47a50.78,50.78,0,0,0,6.74-2.86c9.15-4.72,13.76-15.82,11.44-30.34-1.57-9.84-7.21-30.71-13.54-42.88-6.61-12.7-19.76-20.59-33.78-17.66-5.89,1.23-11.42,2.53-15.24,3.66h0a28.1,28.1,0,0,0-18,37.68c14.84,35.86,19.68,39.75,26,45.42C322.8,583,339.26,583.73,348.68,580.47Z"/><path d="M555.32,273.12c-17.19-52.76-47.78-88.81-85.84-108.7-37.77-19.11-82.59-23.14-131.49-2.23-27.91,11.93-43.27,27.22-55.61,40.43-16,17.16-35.92,13.26-44.2-8.72-10.5-27.88-12.18-36-18.88-59.73C201,69.36,199.16,18.9,165,13.74c-43.2-6.51-57.46,33.89-48.47,62.86,2.47,8,79.5,196.75,87.22,225.65,5.73,21.45,19.18,66.94,39.92,113.12,7.41,16.49,21.7,23.08,37,18.76l.28-.08.33-.12c17.88-6.51,26.45-23.61,22.68-44-2.5-13.47-7.51-36.89-8.46-50.19-2-28.23-1.5-37.07,10.08-62,7.17-15.42,19.81-30.7,30.94-40.67,10.81-10.84,23.15-18.79,36.78-23.27a97.77,97.77,0,0,1,41.62-7.32c14.33.18,27.88,3.6,42.11,10.22a121.68,121.68,0,0,1,39.41,28.43l1.23,1.46C517,269.71,528,298.88,527.7,329c0,1.41-.05,2.82-.1,4.23Q527,357.8,515,383.58c-11.31,24.3-26.89,42.29-46.42,54.83a190,190,0,0,1-34.42,18c-25.1,9.76-34,24.21-24.12,50.47,5.59,14.92,21.87,18.74,35.39,16.52,13.27-2.18,25.94-5.59,41.44-10.86C535.75,495.91,610.7,443,555.32,273.12Z"/></svg>